<mxfile host="app.diagrams.net" agent="Mozilla/5.0 (Windows NT 10.0; Win64; x64) AppleWebKit/537.36 (KHTML, like Gecko) Chrome/131.0.0.0 Safari/537.36" version="25.0.3">
  <diagram name="Página-1" id="YVUyED4Xb-gcXzvOz0Qc">
    <mxGraphModel dx="2670" dy="3134" grid="1" gridSize="10" guides="1" tooltips="1" connect="1" arrows="1" fold="1" page="1" pageScale="1" pageWidth="827" pageHeight="1169" math="0" shadow="0">
      <root>
        <mxCell id="0" />
        <mxCell id="1" parent="0" />
        <mxCell id="2s2I4f_hY12RZA5i_LJ1-1" value="&lt;font style=&quot;font-size: 14px;&quot;&gt;Interfaz Anfitrion&lt;/font&gt;" style="rounded=1;whiteSpace=wrap;html=1;" parent="1" vertex="1">
          <mxGeometry x="243.75" y="-1660" width="120" height="60" as="geometry" />
        </mxCell>
        <mxCell id="2s2I4f_hY12RZA5i_LJ1-2" value="" style="endArrow=none;html=1;rounded=0;entryX=0.5;entryY=1;entryDx=0;entryDy=0;" parent="1" target="2s2I4f_hY12RZA5i_LJ1-1" edge="1">
          <mxGeometry width="50" height="50" relative="1" as="geometry">
            <mxPoint x="304" y="-1360" as="sourcePoint" />
            <mxPoint x="493.75" y="-1320" as="targetPoint" />
          </mxGeometry>
        </mxCell>
        <mxCell id="2s2I4f_hY12RZA5i_LJ1-3" value="&lt;font style=&quot;font-size: 18px;&quot;&gt;Anfitrión&lt;/font&gt;" style="shape=umlActor;verticalLabelPosition=bottom;verticalAlign=top;html=1;outlineConnect=0;" parent="1" vertex="1">
          <mxGeometry x="20" y="-1680" width="50" height="80" as="geometry" />
        </mxCell>
        <mxCell id="2s2I4f_hY12RZA5i_LJ1-4" value="" style="endArrow=none;html=1;rounded=0;entryX=0.5;entryY=1;entryDx=0;entryDy=0;" parent="1" edge="1">
          <mxGeometry width="50" height="50" relative="1" as="geometry">
            <mxPoint x="50" y="-670" as="sourcePoint" />
            <mxPoint x="44.5" y="-1570" as="targetPoint" />
          </mxGeometry>
        </mxCell>
        <mxCell id="2s2I4f_hY12RZA5i_LJ1-5" value="&lt;font style=&quot;font-size: 15px;&quot;&gt;US17: Como &quot;Anfitrión&quot; y encargado de dirección quiero poder tener la opción de modificar las plantillas de formularios guardadas para poder agregar detalles que no fueron incluidos en la original&lt;/font&gt;" style="text;html=1;align=center;verticalAlign=middle;resizable=0;points=[];autosize=1;strokeColor=none;fillColor=none;" parent="1" vertex="1">
          <mxGeometry x="43.75" y="-1730" width="1320" height="30" as="geometry" />
        </mxCell>
        <mxCell id="2s2I4f_hY12RZA5i_LJ1-6" value="" style="rounded=1;whiteSpace=wrap;html=1;rotation=90;" parent="1" vertex="1">
          <mxGeometry x="-330.58" y="-1176.91" width="750.11" height="18.97" as="geometry" />
        </mxCell>
        <mxCell id="2s2I4f_hY12RZA5i_LJ1-9" value="" style="endArrow=none;html=1;rounded=0;" parent="1" edge="1">
          <mxGeometry width="50" height="50" relative="1" as="geometry">
            <mxPoint x="303.75" y="-1410" as="sourcePoint" />
            <mxPoint x="300" y="-800" as="targetPoint" />
          </mxGeometry>
        </mxCell>
        <mxCell id="2s2I4f_hY12RZA5i_LJ1-11" value="&lt;span style=&quot;font-size: 14px;&quot;&gt;Historial de formularios&lt;/span&gt;" style="rounded=1;whiteSpace=wrap;html=1;" parent="1" vertex="1">
          <mxGeometry x="1050" y="-1660" width="120" height="60" as="geometry" />
        </mxCell>
        <mxCell id="2s2I4f_hY12RZA5i_LJ1-12" value="" style="endArrow=none;html=1;rounded=0;entryX=0.5;entryY=1;entryDx=0;entryDy=0;" parent="1" target="2s2I4f_hY12RZA5i_LJ1-11" edge="1">
          <mxGeometry width="50" height="50" relative="1" as="geometry">
            <mxPoint x="1110" y="-798.7691556490385" as="sourcePoint" />
            <mxPoint x="1280" y="-1320" as="targetPoint" />
          </mxGeometry>
        </mxCell>
        <mxCell id="2s2I4f_hY12RZA5i_LJ1-15" value="&lt;span style=&quot;font-size: 14px;&quot;&gt;Async Storage&lt;/span&gt;" style="rounded=1;whiteSpace=wrap;html=1;" parent="1" vertex="1">
          <mxGeometry x="1500" y="-1670" width="120" height="60" as="geometry" />
        </mxCell>
        <mxCell id="2s2I4f_hY12RZA5i_LJ1-16" value="" style="endArrow=none;html=1;rounded=0;entryX=0.5;entryY=1;entryDx=0;entryDy=0;" parent="1" target="2s2I4f_hY12RZA5i_LJ1-15" edge="1">
          <mxGeometry width="50" height="50" relative="1" as="geometry">
            <mxPoint x="1560" y="-810" as="sourcePoint" />
            <mxPoint x="1520" y="-1320" as="targetPoint" />
          </mxGeometry>
        </mxCell>
        <mxCell id="2s2I4f_hY12RZA5i_LJ1-19" value="&lt;span style=&quot;font-size: 14px;&quot;&gt;Dynamic Form&lt;/span&gt;" style="rounded=1;whiteSpace=wrap;html=1;" parent="1" vertex="1">
          <mxGeometry x="1290" y="-1670" width="120" height="60" as="geometry" />
        </mxCell>
        <mxCell id="2s2I4f_hY12RZA5i_LJ1-20" value="" style="endArrow=none;html=1;rounded=0;entryX=0.5;entryY=1;entryDx=0;entryDy=0;" parent="1" target="2s2I4f_hY12RZA5i_LJ1-19" edge="1">
          <mxGeometry width="50" height="50" relative="1" as="geometry">
            <mxPoint x="1360" y="-798.8572474888393" as="sourcePoint" />
            <mxPoint x="1310" y="-1320" as="targetPoint" />
          </mxGeometry>
        </mxCell>
        <mxCell id="2s2I4f_hY12RZA5i_LJ1-21" value="" style="html=1;points=[[0,0,0,0,5],[0,1,0,0,-5],[1,0,0,0,5],[1,1,0,0,-5]];perimeter=orthogonalPerimeter;outlineConnect=0;targetShapes=umlLifeline;portConstraint=eastwest;newEdgeStyle={&quot;curved&quot;:0,&quot;rounded&quot;:0};" parent="1" vertex="1">
          <mxGeometry x="298.75" y="-1460" width="10" height="80" as="geometry" />
        </mxCell>
        <mxCell id="2s2I4f_hY12RZA5i_LJ1-22" value="&lt;font style=&quot;font-size: 14px;&quot;&gt;seleccionarFormulario()&lt;/font&gt;" style="html=1;verticalAlign=bottom;endArrow=block;curved=0;rounded=0;entryX=0;entryY=0;entryDx=0;entryDy=5;" parent="1" target="2s2I4f_hY12RZA5i_LJ1-21" edge="1">
          <mxGeometry x="-0.0028" relative="1" as="geometry">
            <mxPoint x="55" y="-1455" as="sourcePoint" />
            <mxPoint as="offset" />
          </mxGeometry>
        </mxCell>
        <mxCell id="2s2I4f_hY12RZA5i_LJ1-23" value="&lt;font style=&quot;font-size: 14px;&quot;&gt;return formulario&lt;/font&gt;" style="html=1;verticalAlign=bottom;endArrow=open;dashed=1;endSize=8;curved=0;rounded=0;exitX=0;exitY=1;exitDx=0;exitDy=-5;" parent="1" source="2s2I4f_hY12RZA5i_LJ1-21" edge="1">
          <mxGeometry relative="1" as="geometry">
            <mxPoint x="52" y="-1385" as="targetPoint" />
          </mxGeometry>
        </mxCell>
        <mxCell id="2s2I4f_hY12RZA5i_LJ1-24" value="" style="html=1;points=[[0,0,0,0,5],[0,1,0,0,-5],[1,0,0,0,5],[1,1,0,0,-5]];perimeter=orthogonalPerimeter;outlineConnect=0;targetShapes=umlLifeline;portConstraint=eastwest;newEdgeStyle={&quot;curved&quot;:0,&quot;rounded&quot;:0};" parent="1" vertex="1">
          <mxGeometry x="1105" y="-1460" width="10" height="60" as="geometry" />
        </mxCell>
        <mxCell id="2s2I4f_hY12RZA5i_LJ1-25" value="&lt;font style=&quot;font-size: 14px;&quot;&gt;&amp;nbsp;seleccionarForm()&lt;/font&gt;" style="html=1;verticalAlign=bottom;endArrow=block;curved=0;rounded=0;entryX=0;entryY=0;entryDx=0;entryDy=5;" parent="1" source="2s2I4f_hY12RZA5i_LJ1-21" target="2s2I4f_hY12RZA5i_LJ1-24" edge="1">
          <mxGeometry relative="1" as="geometry">
            <mxPoint x="1035" y="-1455" as="sourcePoint" />
          </mxGeometry>
        </mxCell>
        <mxCell id="2s2I4f_hY12RZA5i_LJ1-26" value="&lt;font style=&quot;font-size: 14px;&quot;&gt;return form&lt;/font&gt;" style="html=1;verticalAlign=bottom;endArrow=open;dashed=1;endSize=8;curved=0;rounded=0;exitX=0;exitY=1;exitDx=0;exitDy=-5;" parent="1" source="2s2I4f_hY12RZA5i_LJ1-24" target="2s2I4f_hY12RZA5i_LJ1-21" edge="1">
          <mxGeometry relative="1" as="geometry">
            <mxPoint x="1035" y="-1385" as="targetPoint" />
          </mxGeometry>
        </mxCell>
        <mxCell id="2s2I4f_hY12RZA5i_LJ1-27" value="" style="html=1;points=[[0,0,0,0,5],[0,1,0,0,-5],[1,0,0,0,5],[1,1,0,0,-5]];perimeter=orthogonalPerimeter;outlineConnect=0;targetShapes=umlLifeline;portConstraint=eastwest;newEdgeStyle={&quot;curved&quot;:0,&quot;rounded&quot;:0};" parent="1" vertex="1">
          <mxGeometry x="298.44" y="-1330" width="10" height="80" as="geometry" />
        </mxCell>
        <mxCell id="2s2I4f_hY12RZA5i_LJ1-28" value="&lt;span style=&quot;font-size: 14px;&quot;&gt;modificarFormulario()&lt;/span&gt;" style="html=1;verticalAlign=bottom;endArrow=block;curved=0;rounded=0;entryX=0;entryY=0;entryDx=0;entryDy=5;exitX=0.607;exitY=0.045;exitDx=0;exitDy=0;exitPerimeter=0;" parent="1" target="2s2I4f_hY12RZA5i_LJ1-27" edge="1">
          <mxGeometry relative="1" as="geometry">
            <mxPoint x="52.80135000000013" y="-1323.8817600000004" as="sourcePoint" />
          </mxGeometry>
        </mxCell>
        <mxCell id="2s2I4f_hY12RZA5i_LJ1-29" value="&lt;font style=&quot;font-size: 14px;&quot;&gt;return resouestas guardadas&lt;/font&gt;" style="html=1;verticalAlign=bottom;endArrow=open;dashed=1;endSize=8;curved=0;rounded=0;exitX=0;exitY=1;exitDx=0;exitDy=-5;entryX=0.689;entryY=-0.104;entryDx=0;entryDy=0;entryPerimeter=0;" parent="1" source="2s2I4f_hY12RZA5i_LJ1-27" edge="1">
          <mxGeometry x="-0.002" relative="1" as="geometry">
            <mxPoint x="55.62787999999995" y="-1251.1215199999997" as="targetPoint" />
            <mxPoint as="offset" />
          </mxGeometry>
        </mxCell>
        <mxCell id="2s2I4f_hY12RZA5i_LJ1-36" value="" style="html=1;points=[[0,0,0,0,5],[0,1,0,0,-5],[1,0,0,0,5],[1,1,0,0,-5]];perimeter=orthogonalPerimeter;outlineConnect=0;targetShapes=umlLifeline;portConstraint=eastwest;newEdgeStyle={&quot;curved&quot;:0,&quot;rounded&quot;:0};" parent="1" vertex="1">
          <mxGeometry x="1560" y="-1460" width="10" height="50" as="geometry" />
        </mxCell>
        <mxCell id="2s2I4f_hY12RZA5i_LJ1-37" value="&lt;font style=&quot;font-size: 14px;&quot;&gt;select form&lt;/font&gt;" style="html=1;verticalAlign=bottom;endArrow=block;curved=0;rounded=0;entryX=0;entryY=0;entryDx=0;entryDy=5;exitX=0;exitY=0;exitDx=0;exitDy=5;exitPerimeter=0;" parent="1" source="2s2I4f_hY12RZA5i_LJ1-24" target="2s2I4f_hY12RZA5i_LJ1-36" edge="1">
          <mxGeometry x="0.0008" relative="1" as="geometry">
            <mxPoint x="1490" y="-1455" as="sourcePoint" />
            <mxPoint as="offset" />
          </mxGeometry>
        </mxCell>
        <mxCell id="2s2I4f_hY12RZA5i_LJ1-38" value="&lt;font style=&quot;font-size: 14px;&quot;&gt;return form&lt;/font&gt;" style="html=1;verticalAlign=bottom;endArrow=open;dashed=1;endSize=8;curved=0;rounded=0;entryX=1;entryY=1;entryDx=0;entryDy=-5;entryPerimeter=0;" parent="1" source="2s2I4f_hY12RZA5i_LJ1-36" target="2s2I4f_hY12RZA5i_LJ1-24" edge="1">
          <mxGeometry relative="1" as="geometry">
            <mxPoint x="1490" y="-1385" as="targetPoint" />
          </mxGeometry>
        </mxCell>
        <mxCell id="2s2I4f_hY12RZA5i_LJ1-39" value="&lt;span style=&quot;font-size: 14px;&quot;&gt;Pantalla de crear&lt;/span&gt;&lt;div&gt;&lt;span style=&quot;font-size: 14px;&quot;&gt;formulario&lt;/span&gt;&lt;/div&gt;" style="rounded=1;whiteSpace=wrap;html=1;" parent="1" vertex="1">
          <mxGeometry x="710" y="-1660" width="120" height="60" as="geometry" />
        </mxCell>
        <mxCell id="2s2I4f_hY12RZA5i_LJ1-40" value="" style="endArrow=none;html=1;rounded=0;entryX=0.5;entryY=1;entryDx=0;entryDy=0;" parent="1" source="2s2I4f_hY12RZA5i_LJ1-53" target="2s2I4f_hY12RZA5i_LJ1-39" edge="1">
          <mxGeometry width="50" height="50" relative="1" as="geometry">
            <mxPoint x="770" y="-774.0000697544643" as="sourcePoint" />
            <mxPoint x="730" y="-1310" as="targetPoint" />
          </mxGeometry>
        </mxCell>
        <mxCell id="2s2I4f_hY12RZA5i_LJ1-47" value="" style="html=1;points=[[0,0,0,0,5],[0,1,0,0,-5],[1,0,0,0,5],[1,1,0,0,-5]];perimeter=orthogonalPerimeter;outlineConnect=0;targetShapes=umlLifeline;portConstraint=eastwest;newEdgeStyle={&quot;curved&quot;:0,&quot;rounded&quot;:0};" parent="1" vertex="1">
          <mxGeometry x="298.44" y="-1160" width="10" height="80" as="geometry" />
        </mxCell>
        <mxCell id="2s2I4f_hY12RZA5i_LJ1-48" value="&lt;font style=&quot;font-size: 14px;&quot;&gt;modificarCampo()&lt;/font&gt;" style="html=1;verticalAlign=bottom;endArrow=block;curved=0;rounded=0;entryX=0;entryY=0;entryDx=0;entryDy=5;exitX=0.468;exitY=-0.01;exitDx=0;exitDy=0;exitPerimeter=0;" parent="1" edge="1">
          <mxGeometry relative="1" as="geometry">
            <mxPoint x="52.999700000000395" y="-1154.3685200000002" as="sourcePoint" />
            <mxPoint x="297.2900000000001" y="-1157.94" as="targetPoint" />
          </mxGeometry>
        </mxCell>
        <mxCell id="2s2I4f_hY12RZA5i_LJ1-49" value="&lt;font style=&quot;font-size: 14px;&quot;&gt;return campo modificado&lt;/font&gt;" style="html=1;verticalAlign=bottom;endArrow=open;dashed=1;endSize=8;curved=0;rounded=0;exitX=0;exitY=1;exitDx=0;exitDy=-5;entryX=0.567;entryY=-0.07;entryDx=0;entryDy=0;entryPerimeter=0;" parent="1" edge="1">
          <mxGeometry relative="1" as="geometry">
            <mxPoint x="54.13790000000072" y="-1080.1076300000002" as="targetPoint" />
            <mxPoint x="297.2900000000001" y="-1087.94" as="sourcePoint" />
          </mxGeometry>
        </mxCell>
        <mxCell id="2s2I4f_hY12RZA5i_LJ1-54" value="&lt;font style=&quot;font-size: 14px;&quot;&gt;editCampo()&lt;/font&gt;" style="html=1;verticalAlign=bottom;endArrow=block;curved=0;rounded=0;entryX=0;entryY=0;entryDx=0;entryDy=5;" parent="1" target="2s2I4f_hY12RZA5i_LJ1-53" edge="1">
          <mxGeometry relative="1" as="geometry">
            <mxPoint x="307.2900000000001" y="-1147.94" as="sourcePoint" />
          </mxGeometry>
        </mxCell>
        <mxCell id="2s2I4f_hY12RZA5i_LJ1-55" value="&lt;font style=&quot;font-size: 14px;&quot;&gt;return ok&lt;/font&gt;" style="html=1;verticalAlign=bottom;endArrow=open;dashed=1;endSize=8;curved=0;rounded=0;exitX=0;exitY=1;exitDx=0;exitDy=-5;entryX=1;entryY=1;entryDx=0;entryDy=-5;entryPerimeter=0;" parent="1" source="2s2I4f_hY12RZA5i_LJ1-53" edge="1">
          <mxGeometry relative="1" as="geometry">
            <mxPoint x="307.2900000000001" y="-1087.94" as="targetPoint" />
          </mxGeometry>
        </mxCell>
        <mxCell id="2s2I4f_hY12RZA5i_LJ1-56" value="" style="endArrow=none;html=1;rounded=0;entryX=0.5;entryY=1;entryDx=0;entryDy=0;" parent="1" target="2s2I4f_hY12RZA5i_LJ1-53" edge="1">
          <mxGeometry width="50" height="50" relative="1" as="geometry">
            <mxPoint x="770" y="-774.0000697544643" as="sourcePoint" />
            <mxPoint x="770" y="-1600" as="targetPoint" />
          </mxGeometry>
        </mxCell>
        <mxCell id="2s2I4f_hY12RZA5i_LJ1-53" value="" style="html=1;points=[[0,0,0,0,5],[0,1,0,0,-5],[1,0,0,0,5],[1,1,0,0,-5]];perimeter=orthogonalPerimeter;outlineConnect=0;targetShapes=umlLifeline;portConstraint=eastwest;newEdgeStyle={&quot;curved&quot;:0,&quot;rounded&quot;:0};" parent="1" vertex="1">
          <mxGeometry x="763.85" y="-1152.94" width="10" height="60" as="geometry" />
        </mxCell>
        <mxCell id="2s2I4f_hY12RZA5i_LJ1-57" value="&lt;span style=&quot;font-size: 14px;&quot;&gt;guardarPlantillaCreada()&lt;/span&gt;" style="html=1;verticalAlign=bottom;endArrow=block;curved=0;rounded=0;entryX=0;entryY=0;entryDx=0;entryDy=5;" parent="1" target="2s2I4f_hY12RZA5i_LJ1-59" edge="1">
          <mxGeometry relative="1" as="geometry">
            <mxPoint x="56" y="-961.1" as="sourcePoint" />
          </mxGeometry>
        </mxCell>
        <mxCell id="2s2I4f_hY12RZA5i_LJ1-58" value="&lt;font style=&quot;font-size: 14px;&quot;&gt;return formulario&lt;/font&gt;" style="html=1;verticalAlign=bottom;endArrow=open;dashed=1;endSize=8;curved=0;rounded=0;exitX=0;exitY=1;exitDx=0;exitDy=-5;entryX=0.377;entryY=-0.055;entryDx=0;entryDy=0;entryPerimeter=0;" parent="1" source="2s2I4f_hY12RZA5i_LJ1-59" edge="1">
          <mxGeometry relative="1" as="geometry">
            <mxPoint x="55" y="-886.1" as="targetPoint" />
          </mxGeometry>
        </mxCell>
        <mxCell id="2s2I4f_hY12RZA5i_LJ1-59" value="" style="html=1;points=[[0,0,0,0,5],[0,1,0,0,-5],[1,0,0,0,5],[1,1,0,0,-5]];perimeter=orthogonalPerimeter;outlineConnect=0;targetShapes=umlLifeline;portConstraint=eastwest;newEdgeStyle={&quot;curved&quot;:0,&quot;rounded&quot;:0};" parent="1" vertex="1">
          <mxGeometry x="298.75" y="-966.1" width="10" height="80" as="geometry" />
        </mxCell>
        <mxCell id="2s2I4f_hY12RZA5i_LJ1-60" value="&lt;font style=&quot;font-size: 14px;&quot;&gt;insert form&lt;/font&gt;" style="html=1;verticalAlign=bottom;endArrow=block;curved=0;rounded=0;entryX=0;entryY=0;entryDx=0;entryDy=5;entryPerimeter=0;" parent="1" target="2s2I4f_hY12RZA5i_LJ1-62" edge="1">
          <mxGeometry x="0.0003" relative="1" as="geometry">
            <mxPoint x="310" y="-956.1" as="sourcePoint" />
            <mxPoint as="offset" />
            <mxPoint x="1115" y="-991.1" as="targetPoint" />
          </mxGeometry>
        </mxCell>
        <mxCell id="2s2I4f_hY12RZA5i_LJ1-61" value="&lt;font style=&quot;font-size: 14px;&quot;&gt;return ok&lt;/font&gt;" style="html=1;verticalAlign=bottom;endArrow=open;dashed=1;endSize=8;curved=0;rounded=0;exitX=0;exitY=1;exitDx=0;exitDy=-5;exitPerimeter=0;" parent="1" source="2s2I4f_hY12RZA5i_LJ1-62" edge="1">
          <mxGeometry relative="1" as="geometry">
            <mxPoint x="309" y="-921.1" as="targetPoint" />
            <mxPoint x="1115" y="-947.1" as="sourcePoint" />
          </mxGeometry>
        </mxCell>
        <mxCell id="2s2I4f_hY12RZA5i_LJ1-62" value="" style="html=1;points=[[0,0,0,0,5],[0,1,0,0,-5],[1,0,0,0,5],[1,1,0,0,-5]];perimeter=orthogonalPerimeter;outlineConnect=0;targetShapes=umlLifeline;portConstraint=eastwest;newEdgeStyle={&quot;curved&quot;:0,&quot;rounded&quot;:0};" parent="1" vertex="1">
          <mxGeometry x="1560" y="-970.0000000000001" width="10" height="50" as="geometry" />
        </mxCell>
        <mxCell id="Jpg2S8JpnuzDg28awUKe-1" value="Loop" style="shape=umlFrame;whiteSpace=wrap;html=1;pointerEvents=0;" parent="1" vertex="1">
          <mxGeometry x="-27" y="-1240" width="1627" height="190" as="geometry" />
        </mxCell>
        <mxCell id="Jpg2S8JpnuzDg28awUKe-2" value="&lt;b&gt;&lt;font style=&quot;font-size: 14px;&quot;&gt;[ mientras el anfitrión quiera seguir modificando ]&lt;/font&gt;&lt;/b&gt;" style="text;html=1;align=center;verticalAlign=middle;resizable=0;points=[];autosize=1;strokeColor=none;fillColor=none;" parent="1" vertex="1">
          <mxGeometry x="60" y="-1220" width="350" height="30" as="geometry" />
        </mxCell>
      </root>
    </mxGraphModel>
  </diagram>
</mxfile>
